<svg width="36" height="37" viewBox="0 0 36 37" fill="none" xmlns="http://www.w3.org/2000/svg">
<path d="M1.7998 4.87095C1.7998 3.58989 2.8723 2.55005 4.19437 2.55005H31.8052C33.1278 2.55005 34.1998 3.58989 34.1998 4.87095V32.6295C34.1998 33.911 33.1278 34.95 31.8052 34.95H4.19437C2.87242 34.95 1.7998 33.9111 1.7998 32.6299V4.87057V4.87095Z" fill="#333333"/>
<path d="M11.6454 29.6645V15.0779H6.79701V29.6645H11.6459H11.6454ZM9.2222 13.0867C10.9126 13.0867 11.9649 11.9667 11.9649 10.5669C11.9333 9.1352 10.9126 8.04639 9.25435 8.04639C7.59499 8.04639 6.51123 9.1352 6.51123 10.5668C6.51123 11.9665 7.56322 13.0866 9.19043 13.0866H9.22182L9.2222 13.0867ZM14.329 29.6645H19.177V21.5196C19.177 21.0842 19.2086 20.6477 19.3367 20.3367C19.687 19.4654 20.4847 18.5633 21.8244 18.5633C23.5783 18.5633 24.2804 19.9009 24.2804 21.8619V29.6645H29.1282V21.301C29.1282 16.8208 26.7367 14.736 23.5469 14.736C20.9318 14.736 19.7832 16.1976 19.1451 17.1932H19.1774V15.0785H14.3292C14.3925 16.4468 14.3289 29.665 14.3289 29.665L14.329 29.6645Z" fill="white"/>
</svg>
