<svg width="32" height="33" viewBox="0 0 32 33" fill="none" xmlns="http://www.w3.org/2000/svg">
<path fill-rule="evenodd" clip-rule="evenodd" d="M16 2.75C13.3478 2.75 10.8043 3.80357 8.92893 5.67893C7.05357 7.5543 6 10.0978 6 12.75C6 15.03 7.12 17.726 8.754 20.618C10.408 23.544 12.688 26.832 15.186 30.332L16 31.472L16.814 30.332C19.314 26.832 21.592 23.544 23.246 20.618C24.88 17.726 26 15.03 26 12.75C26 11.4368 25.7413 10.1364 25.2388 8.92317C24.7362 7.70991 23.9997 6.60752 23.0711 5.67893C22.1425 4.75035 21.0401 4.01375 19.8268 3.5112C18.6136 3.00866 17.3132 2.75 16 2.75ZM16 7.75C14.6739 7.75 13.4021 8.27678 12.4645 9.21447C11.5268 10.1521 11 11.4239 11 12.75C11 14.0761 11.5268 15.3479 12.4645 16.2855C13.4021 17.2232 14.6739 17.75 16 17.75C17.3261 17.75 18.5979 17.2232 19.5355 16.2855C20.4732 15.3479 21 14.0761 21 12.75C21 11.4239 20.4732 10.1521 19.5355 9.21447C18.5979 8.27678 17.3261 7.75 16 7.75Z" fill="#333333"/>
</svg>
