<svg width="32" height="33" viewBox="0 0 32 33" fill="none" xmlns="http://www.w3.org/2000/svg">
<path d="M2.6665 10.0833L13.5531 17.7038C14.4346 18.3209 14.8754 18.6295 15.3549 18.749C15.7784 18.8546 16.2213 18.8546 16.6448 18.749C17.1243 18.6295 17.565 18.3209 18.4466 17.7038L29.3332 10.0833M9.0665 27.4166H22.9332C25.1734 27.4166 26.2935 27.4166 27.1491 26.9806C27.9018 26.5971 28.5137 25.9852 28.8972 25.2325C29.3332 24.3769 29.3332 23.2568 29.3332 21.0166V12.4833C29.3332 10.243 29.3332 9.12294 28.8972 8.26729C28.5137 7.51464 27.9018 6.90272 27.1491 6.51923C26.2935 6.08325 25.1734 6.08325 22.9332 6.08325H9.0665C6.82629 6.08325 5.70619 6.08325 4.85054 6.51923C4.09789 6.90272 3.48597 7.51464 3.10248 8.26729C2.6665 9.12294 2.6665 10.243 2.6665 12.4833V21.0166C2.6665 23.2568 2.6665 24.3769 3.10248 25.2325C3.48597 25.9852 4.09789 26.5971 4.85054 26.9806C5.70619 27.4166 6.82629 27.4166 9.0665 27.4166Z" stroke="#333333" stroke-width="2" stroke-linecap="round" stroke-linejoin="round"/>
</svg>
