<svg width="32" height="33" viewBox="0 0 32 33" fill="none" xmlns="http://www.w3.org/2000/svg">
<path d="M11.1737 12.5542C12.1017 14.4871 13.3667 16.2986 14.9689 17.9007C16.571 19.5028 18.3825 20.7678 20.3153 21.6958C20.4816 21.7757 20.5647 21.8156 20.6699 21.8462C21.0437 21.9552 21.5027 21.8769 21.8193 21.6502C21.9083 21.5865 21.9846 21.5102 22.137 21.3578C22.6031 20.8917 22.8362 20.6586 23.0706 20.5062C23.9544 19.9316 25.0938 19.9316 25.9777 20.5062C26.2121 20.6586 26.4451 20.8917 26.9113 21.3578L27.1711 21.6177C27.8797 22.3262 28.234 22.6805 28.4265 23.061C28.8092 23.8178 28.8092 24.7115 28.4265 25.4682C28.234 25.8487 27.8797 26.203 27.1711 26.9116L26.9609 27.1218C26.2548 27.828 25.9017 28.181 25.4216 28.4507C24.889 28.7499 24.0616 28.9651 23.4507 28.9633C22.9001 28.9616 22.5238 28.8548 21.7712 28.6412C17.7267 27.4933 13.9102 25.3273 10.7262 22.1433C7.54224 18.9593 5.37627 15.1429 4.22831 11.0983C4.0147 10.3457 3.9079 9.96944 3.90626 9.41885C3.90444 8.80788 4.11959 7.98056 4.41882 7.44789C4.68848 6.96785 5.04157 6.61476 5.74773 5.9086L5.95791 5.69842C6.6665 4.98983 7.02079 4.63554 7.4013 4.44308C8.15805 4.06032 9.05174 4.06032 9.80848 4.44308C10.189 4.63554 10.5433 4.98983 11.2519 5.69842L11.5117 5.95825C11.9778 6.42439 12.2109 6.65746 12.3633 6.89183C12.938 7.77568 12.938 8.91512 12.3633 9.79898C12.2109 10.0333 11.9778 10.2664 11.5117 10.7326C11.3593 10.885 11.2831 10.9612 11.2193 11.0503C10.9926 11.3668 10.9143 11.8259 11.0233 12.1997C11.054 12.3048 11.0939 12.388 11.1737 12.5542Z" stroke="#333333" stroke-width="2" stroke-linecap="round" stroke-linejoin="round"/>
</svg>
