<svg width="36" height="37" viewBox="0 0 36 37" fill="none" xmlns="http://www.w3.org/2000/svg">
<path d="M24.0747 12.6517C24.6883 12.6517 25.2877 12.7027 25.879 12.7756C24.81 8.08101 19.8792 4.53003 13.95 4.53003C7.23894 4.53003 1.7998 9.07598 1.7998 14.6821C1.7998 17.9143 3.61837 20.7819 6.43908 22.6374L4.83725 25.8496L9.20091 23.9755C10.1366 24.3087 11.109 24.5831 12.1476 24.7108C12.0056 24.0913 11.925 23.4561 11.925 22.8043C11.925 17.2061 17.374 12.6517 24.0747 12.6517ZM18 9.09817C18.8385 9.09817 19.5186 9.78033 19.5186 10.6212C19.5186 11.4623 18.8386 12.144 18 12.144C17.161 12.144 16.4812 11.4623 16.4812 10.6212C16.4812 9.78026 17.161 9.09817 18 9.09817ZM9.89984 12.144C9.06117 12.144 8.38112 11.4623 8.38112 10.6212C8.38112 9.78033 9.06124 9.09817 9.89984 9.09817C10.7384 9.09817 11.4186 9.78033 11.4186 10.6212C11.4186 11.4623 10.7384 12.144 9.89984 12.144Z" fill="#333333"/>
<path d="M34.1998 22.8041C34.1998 18.3185 29.6655 14.6821 24.0747 14.6821C18.4837 14.6821 13.95 18.3185 13.95 22.8041C13.95 27.2894 18.4837 30.9259 24.0747 30.9259C24.9942 30.9259 25.8687 30.7959 26.7173 30.6114L32.1749 32.9562L30.2873 29.1738C32.6528 27.6872 34.1998 25.4011 34.1998 22.8041ZM21.0373 22.2964C20.1987 22.2964 19.5185 21.6146 19.5185 20.7733C19.5185 19.9324 20.1986 19.2508 21.0373 19.2508C21.8762 19.2508 22.556 19.9327 22.556 20.7733C22.556 21.6146 21.8761 22.2964 21.0373 22.2964ZM27.1122 22.2964C26.2732 22.2964 25.5936 21.6146 25.5936 20.7733C25.5936 19.9324 26.2731 19.2508 27.1122 19.2508C27.9512 19.2508 28.631 19.9327 28.631 20.7733C28.631 21.6146 27.9512 22.2964 27.1122 22.2964Z" fill="#333333"/>
</svg>
